<?xml version="1.0" encoding="utf-8"?>
<!-- Generator: Adobe Illustrator 21.0.2, SVG Export Plug-In . SVG Version: 6.00 Build 0)  -->
<svg version="1.1" id="Layer_1" xmlns="http://www.w3.org/2000/svg" xmlns:xlink="http://www.w3.org/1999/xlink" x="0px" y="0px"
	 viewBox="0 0 1304.3 353.3" style="enable-background:new 0 0 1304.3 353.3;" xml:space="preserve">
<style type="text/css">
	.st0{fill:#DC6630;}
</style>
<g>
	<path class="st0" d="M25.3,91.2H1.9V0h23.4V91.2z"/>
	<path class="st0" d="M84.1,91.2V0h56.2c7.4,0,12.2,4.7,12.2,11.5v20.3c0,6.2-4.1,12.2-12.4,14.2c8.4,2,13.1,7.7,13.1,13.8v19.9
		c0,7.2-4.7,11.6-12.2,11.6H84.1z M129.9,19.6c0-0.7-0.4-1.5-1.4-1.5h-21.1V37h21.1c0.9,0,1.4-0.7,1.4-1.5V19.6z M129.9,55.3
		c0-0.7-0.4-1.5-1.4-1.5h-21.1v20.1h21.1c0.9,0,1.4-0.7,1.4-1.4V55.3z"/>
	<path class="st0" d="M200.4,0v70.3c0,0.7,0.7,1.2,1.2,1.2h17.2c0.8,0,1.5-0.5,1.5-1.2V0h23.5v80.8c0,5.9-4.6,10.4-10.3,10.4h-46.2
		c-5.5,0-10.4-4.5-10.4-10.4V0H200.4z"/>
	<path class="st0" d="M293.2,91.2h-23.4V0h23.4V91.2z"/>
	<path class="st0" d="M319.1,0h23.4v71.5h29.1v19.7h-52.4V0z"/>
	<path class="st0" d="M440.6,0c10,0,18.5,8.2,18.5,18.5v54.1c0,10.4-8.5,18.7-18.5,18.7h-49.1V0H440.6z M435.8,26.2
		c0-3.9-2.7-6.6-6.6-6.6h-14.1v51.9h14.1c3.9,0,6.6-2.7,6.6-6.6V26.2z"/>
	<path class="st0" d="M612.1,0L595,91.2h-20.7l-14.1-50.8l-14.5,50.8h-20.3L508.2,0h23l8,57.3L551.4,0h19.3l11.6,55.7L591.1,0H612.1
		z"/>
	<path class="st0" d="M629.2,0h59.6v19.6h-36.2v15.9h31.4V55h-31.4v16.5h36.2v19.7h-59.6V0z"/>
	<path class="st0" d="M711.5,91.2V0h56.2c7.4,0,12.2,4.7,12.2,11.5v20.3c0,6.2-4.1,12.2-12.4,14.2c8.4,2,13.1,7.7,13.1,13.8v19.9
		c0,7.2-4.7,11.6-12.2,11.6H711.5z M757.3,19.6c0-0.7-0.4-1.5-1.4-1.5h-21.1V37h21.1c0.9,0,1.4-0.7,1.4-1.5V19.6z M757.3,55.3
		c0-0.7-0.4-1.5-1.4-1.5h-21.1v20.1h21.1c0.9,0,1.4-0.7,1.4-1.4V55.3z"/>
	<path class="st0" d="M802.4,71.5h34.2c0.9,0,1.5-0.5,1.5-1.2V57c0-0.7-0.5-1.2-1.5-1.2h-23.5c-6.4,0-10.7-4.3-10.7-10.7V10.7
		c0-6.4,4.3-10.7,10.7-10.7h47.2v19.6h-33c-0.8,0-1.4,0.7-1.4,1.5v13.4c0,0.5,0.5,1.2,1.4,1.2h23.5c6.4,0,10.7,4.3,10.7,10.7v34.2
		c0,6.4-4.3,10.7-10.7,10.7h-48.4V71.5z"/>
	<path class="st0" d="M908.4,91.2H885V0h23.4V91.2z"/>
	<path class="st0" d="M990.7,0v19.7H970v71.5h-23.5V19.7h-20.7V0H990.7z"/>
	<path class="st0" d="M1008.1,0h59.6v19.6h-36.2v15.9h31.4V55h-31.4v16.5h36.2v19.7h-59.6V0z"/>
	<path class="st0" d="M1088.6,71.5h34.2c0.9,0,1.5-0.5,1.5-1.2V57c0-0.7-0.5-1.2-1.5-1.2h-23.5c-6.4,0-10.7-4.3-10.7-10.7V10.7
		c0-6.4,4.3-10.7,10.7-10.7h47.2v19.6h-33c-0.8,0-1.4,0.7-1.4,1.5v13.4c0,0.5,0.5,1.2,1.4,1.2h23.5c6.4,0,10.7,4.3,10.7,10.7v34.2
		c0,6.4-4.3,10.7-10.7,10.7h-48.4V71.5z"/>
	<path class="st0" d="M1203.2,10.7c0-6.4,4.3-10.7,10.7-10.7h44.5c6.4,0,10.7,4.3,10.7,10.7v18.1h-22.4v-7.2c0-1.5-0.8-2.3-2.3-2.3
		h-16.4c-1.5,0-2.3,0.8-2.3,2.3V35c0,1.5,0.8,2.3,2.3,2.3h50.1v16.4h-8.4v26.9c0,6.4-4.3,10.7-10.7,10.7h-45.1
		c-6.4,0-10.7-4.3-10.7-10.7V59.3c0-7.3,4.6-13.1,12-13.4c-7.4-0.3-12-5.8-12-13V10.7z M1225.6,69.5c0,1.5,0.8,2.3,2.3,2.3h17
		c1.5,0,2.3-0.8,2.3-2.3V53.7h-19.3c-1.5,0-2.3,0.8-2.3,2.3V69.5z"/>
	<path class="st0" d="M51,131c10,0,18.5,8.2,18.5,18.5v54.1c0,10.4-8.5,18.7-18.5,18.7H1.9V131H51z M46.1,157.3
		c0-3.9-2.7-6.6-6.6-6.6H25.4v51.9h14.1c3.9,0,6.6-2.7,6.6-6.6V157.3z"/>
	<path class="st0" d="M94.6,131h59.6v19.6H118v15.9h31.4v19.5H118v16.5h36.2v19.7H94.6V131z"/>
	<path class="st0" d="M175,202.5h34.2c0.9,0,1.5-0.5,1.5-1.2v-13.2c0-0.7-0.5-1.2-1.5-1.2h-23.5c-6.4,0-10.7-4.3-10.7-10.7v-34.5
		c0-6.4,4.3-10.7,10.7-10.7h47.2v19.6h-33c-0.8,0-1.4,0.7-1.4,1.5v13.4c0,0.5,0.5,1.2,1.4,1.2h23.5c6.4,0,10.7,4.3,10.7,10.7v34.2
		c0,6.4-4.3,10.7-10.7,10.7H175V202.5z"/>
	<path class="st0" d="M281,222.3h-23.4V131H281V222.3z"/>
	<path class="st0" d="M339,166.3h41.4v19.3h-7.6v26.2c0,5.9-4.6,10.4-10.4,10.4h-45.7c-5.8,0-10.5-4.5-10.5-10.4v-70.6
		c0-5.5,4.7-10.3,10.5-10.3h56.5v19.6h-42.3c-0.7,0-1.4,0.7-1.4,1.5v48.9c0,0.8,0.7,1.4,1.4,1.4h18.9c0.9,0,1.5-0.5,1.5-1.4v-15.4
		H339V166.3z"/>
	<path class="st0" d="M423.7,172.1v50.1h-21.6V131h21.6l27.3,50.3V131h21.6v91.2h-22.3L423.7,172.1z"/>
	<path class="st0" d="M531.4,131h23.4v71.5h29.1v19.7h-52.4V131z"/>
	<path class="st0" d="M658,131c6.4,0,10.7,4.3,10.7,10.7v69.9c0,6.4-4.3,10.7-10.7,10.7h-46.9c-6.4,0-10.7-4.3-10.7-10.7v-69.9
		c0-6.4,4.3-10.7,10.7-10.7H658z M645.1,152.3c0-0.8-0.7-1.5-1.5-1.5h-18.5c-0.5,0-1.2,0.7-1.2,1.5v49.1c0,0.7,0.7,1.2,1.2,1.2h18.5
		c0.8,0,1.5-0.5,1.5-1.2V152.3z"/>
	<path class="st0" d="M725.8,166.3h41.4v19.3h-7.6v26.2c0,5.9-4.6,10.4-10.4,10.4h-45.7c-5.8,0-10.5-4.5-10.5-10.4v-70.6
		c0-5.5,4.7-10.3,10.5-10.3H760v19.6h-42.3c-0.7,0-1.4,0.7-1.4,1.5v48.9c0,0.8,0.7,1.4,1.4,1.4h18.9c0.9,0,1.5-0.5,1.5-1.4v-15.4
		h-12.3V166.3z"/>
	<path class="st0" d="M845.7,131c6.4,0,10.7,4.3,10.7,10.7v69.9c0,6.4-4.3,10.7-10.7,10.7h-46.9c-6.4,0-10.7-4.3-10.7-10.7v-69.9
		c0-6.4,4.3-10.7,10.7-10.7H845.7z M832.9,152.3c0-0.8-0.7-1.5-1.5-1.5h-18.5c-0.5,0-1.2,0.7-1.2,1.5v49.1c0,0.7,0.7,1.2,1.2,1.2
		h18.5c0.8,0,1.5-0.5,1.5-1.2V152.3z"/>
	<path class="st0" d="M879.6,202.5h34.2c0.9,0,1.5-0.5,1.5-1.2v-13.2c0-0.7-0.5-1.2-1.5-1.2h-23.5c-6.4,0-10.7-4.3-10.7-10.7v-34.5
		c0-6.4,4.3-10.7,10.7-10.7h47.2v19.6h-33c-0.8,0-1.4,0.7-1.4,1.5v13.4c0,0.5,0.5,1.2,1.4,1.2H928c6.4,0,10.7,4.3,10.7,10.7v34.2
		c0,6.4-4.3,10.7-10.7,10.7h-48.4V202.5z"/>
	<path class="st0" d="M995,131h57.9v19.6h-34.5v20.7h29.7v19.5h-29.7v31.5H995V131z"/>
	<path class="st0" d="M1130.2,131c6.4,0,10.7,4.3,10.7,10.7v69.9c0,6.4-4.3,10.7-10.7,10.7h-46.9c-6.4,0-10.7-4.3-10.7-10.7v-69.9
		c0-6.4,4.3-10.7,10.7-10.7H1130.2z M1117.4,152.3c0-0.8-0.7-1.5-1.5-1.5h-18.5c-0.5,0-1.2,0.7-1.2,1.5v49.1c0,0.7,0.7,1.2,1.2,1.2
		h18.5c0.8,0,1.5-0.5,1.5-1.2V152.3z"/>
	<path class="st0" d="M1223.3,131c5.5,0,10.3,4.5,10.3,10.3v41.8c0,5.5-4.7,10.3-10.3,10.3h-0.7l11.2,28.9h-23l-11.4-28.9h-10v28.9
		H1166V131H1223.3z M1210.2,152c0-0.7-0.7-1.4-1.2-1.4h-19.5V175h19.5c0.5,0,1.2-0.7,1.2-1.2V152z"/>
	<path class="st0" d="M0,333.6h34.2c0.9,0,1.5-0.5,1.5-1.2v-13.2c0-0.7-0.5-1.2-1.5-1.2H10.7c-6.4,0-10.7-4.3-10.7-10.7v-34.5
		c0-6.4,4.3-10.7,10.7-10.7h47.2v19.6h-33c-0.8,0-1.4,0.7-1.4,1.5v13.4c0,0.5,0.5,1.2,1.4,1.2h23.5c6.4,0,10.7,4.3,10.7,10.7v34.2
		c0,6.4-4.3,10.7-10.7,10.7H0V333.6z"/>
	<path class="st0" d="M104.2,301.7v51.6H82.6v-91.2h23.8l18.4,42.6l16.9-42.6h24.9v91.2h-22.2v-52.6L128.9,337h-9.2L104.2,301.7z"/>
	<path class="st0" d="M259.4,353.3h-23.5v-22.7h-20.7v22.7h-23.5v-80.6c0-6.4,4.3-10.7,10.7-10.7h46.4c6.4,0,10.7,4.3,10.7,10.7
		V353.3z M235.9,310.9v-27.4c0-1.6-1.4-2.7-3.2-2.7H218c-1.6,0-2.8,1.2-2.8,2.7v27.4H235.9z"/>
	<path class="st0" d="M284.5,262.1h23.4v71.5H337v19.7h-52.4V262.1z"/>
	<path class="st0" d="M357,262.1h23.4v71.5h29.1v19.7H357V262.1z"/>
	<path class="st0" d="M462.2,353.3v-91.2h56.2c7.4,0,12.2,4.7,12.2,11.5v20.3c0,6.2-4.1,12.2-12.4,14.2c8.4,2,13.1,7.7,13.1,13.8
		v19.9c0,7.2-4.7,11.6-12.2,11.6H462.2z M508.1,281.7c0-0.7-0.4-1.5-1.4-1.5h-21.1v18.9h21.1c0.9,0,1.4-0.7,1.4-1.5V281.7z
		 M508.1,317.4c0-0.7-0.4-1.5-1.4-1.5h-21.1V336h21.1c0.9,0,1.4-0.7,1.4-1.4V317.4z"/>
	<path class="st0" d="M578.6,262.1v70.3c0,0.7,0.7,1.2,1.2,1.2H597c0.8,0,1.5-0.5,1.5-1.2v-70.3H622v80.8c0,5.9-4.6,10.4-10.3,10.4
		h-46.2c-5.5,0-10.4-4.5-10.4-10.4v-80.8H578.6z"/>
	<path class="st0" d="M646.1,333.6h34.2c0.9,0,1.5-0.5,1.5-1.2v-13.2c0-0.7-0.5-1.2-1.5-1.2h-23.5c-6.4,0-10.7-4.3-10.7-10.7v-34.5
		c0-6.4,4.3-10.7,10.7-10.7h47.2v19.6h-33c-0.8,0-1.4,0.7-1.4,1.5v13.4c0,0.5,0.5,1.2,1.4,1.2h23.5c6.4,0,10.7,4.3,10.7,10.7v34.2
		c0,6.4-4.3,10.7-10.7,10.7h-48.4V333.6z"/>
	<path class="st0" d="M752,353.3h-23.4v-91.2H752V353.3z"/>
	<path class="st0" d="M799.6,303.2v50.1H778v-91.2h21.6l27.3,50.3v-50.3h21.6v91.2h-22.3L799.6,303.2z"/>
	<path class="st0" d="M874.5,262.1h59.6v19.6h-36.2v15.9h31.4v19.5h-31.4v16.5h36.2v19.7h-59.6V262.1z"/>
	<path class="st0" d="M954.9,333.6h34.2c0.9,0,1.5-0.5,1.5-1.2v-13.2c0-0.7-0.5-1.2-1.5-1.2h-23.5c-6.4,0-10.7-4.3-10.7-10.7v-34.5
		c0-6.4,4.3-10.7,10.7-10.7h47.2v19.6h-33c-0.8,0-1.4,0.7-1.4,1.5v13.4c0,0.5,0.5,1.2,1.4,1.2h23.5c6.4,0,10.7,4.3,10.7,10.7v34.2
		c0,6.4-4.3,10.7-10.7,10.7h-48.4V333.6z"/>
	<path class="st0" d="M1035.6,333.6h34.2c0.9,0,1.5-0.5,1.5-1.2v-13.2c0-0.7-0.5-1.2-1.5-1.2h-23.5c-6.4,0-10.7-4.3-10.7-10.7v-34.5
		c0-6.4,4.3-10.7,10.7-10.7h47.2v19.6h-33c-0.8,0-1.4,0.7-1.4,1.5v13.4c0,0.5,0.5,1.2,1.4,1.2h23.5c6.4,0,10.7,4.3,10.7,10.7v34.2
		c0,6.4-4.3,10.7-10.7,10.7h-48.4V333.6z"/>
	<path class="st0" d="M1118.2,262.1h59.6v19.6h-36.2v15.9h31.4v19.5h-31.4v16.5h36.2v19.7h-59.6V262.1z"/>
	<path class="st0" d="M1198.6,333.6h34.2c0.9,0,1.5-0.5,1.5-1.2v-13.2c0-0.7-0.5-1.2-1.5-1.2h-23.5c-6.4,0-10.7-4.3-10.7-10.7v-34.5
		c0-6.4,4.3-10.7,10.7-10.7h47.2v19.6h-33c-0.8,0-1.4,0.7-1.4,1.5v13.4c0,0.5,0.5,1.2,1.4,1.2h23.5c6.4,0,10.7,4.3,10.7,10.7v34.2
		c0,6.4-4.3,10.7-10.7,10.7h-48.4V333.6z"/>
	<path class="st0" d="M1304.3,353.3H1279v-24.7h25.3V353.3z"/>
</g>
</svg>
